<svg width="16" height="16" viewBox="0 0 16 16" fill="none" xmlns="http://www.w3.org/2000/svg">
<path d="M11.7741 15.1132C11.4207 15.1132 10.9674 14.9999 10.4007 14.6666L8.4074 13.4865C8.20073 13.3665 7.80073 13.3665 7.60073 13.4865L5.60073 14.6666C4.42073 15.3665 3.7274 15.0866 3.41406 14.8599C3.1074 14.6332 2.6274 14.0532 2.94073 12.7199L3.41406 10.6732C3.4674 10.4599 3.36073 10.0932 3.20073 9.93322L1.5474 8.27988C0.72073 7.45322 0.787396 6.74655 0.90073 6.39988C1.01406 6.05322 1.37406 5.43988 2.52073 5.24655L4.6474 4.89322C4.8474 4.85988 5.13406 4.64655 5.22073 4.46655L6.40073 2.11322C6.93406 1.03988 7.63406 0.879883 8.00073 0.879883C8.3674 0.879883 9.0674 1.03988 9.60073 2.11322L10.7741 4.45988C10.8674 4.63988 11.1541 4.85322 11.3541 4.88655L13.4807 5.23988C14.6341 5.43322 14.9941 6.04655 15.1007 6.39322C15.2074 6.73988 15.2741 7.44655 14.4541 8.27322L12.8007 9.93322C12.6407 10.0932 12.5407 10.4532 12.5874 10.6732L13.0607 12.7199C13.3674 14.0532 12.8941 14.6332 12.5874 14.8599C12.4207 14.9799 12.1541 15.1132 11.7741 15.1132Z" fill="#F9BC00"/>
</svg>
