<svg width="16" height="16" viewBox="0 0 16 16" fill="none" xmlns="http://www.w3.org/2000/svg">
<path d="M11.7741 15.1133C11.4207 15.1133 10.9674 15 10.4007 14.6667L8.4074 13.4867C8.20073 13.3667 7.80073 13.3667 7.60073 13.4867L5.60073 14.6667C4.42073 15.3667 3.7274 15.0867 3.41406 14.86C3.1074 14.6333 2.6274 14.0533 2.94073 12.72L3.41406 10.6733C3.4674 10.46 3.36073 10.0933 3.20073 9.93334L1.5474 8.28001C0.72073 7.45334 0.787396 6.74667 0.90073 6.40001C1.01406 6.05334 1.37406 5.44 2.52073 5.24667L4.6474 4.89334C4.8474 4.86 5.13406 4.64667 5.22073 4.46667L6.40073 2.11334C6.93406 1.04 7.63406 0.880005 8.00073 0.880005C8.3674 0.880005 9.0674 1.04 9.60073 2.11334L10.7741 4.46C10.8674 4.64 11.1541 4.85334 11.3541 4.88667L13.4807 5.24001C14.6341 5.43334 14.9941 6.04667 15.1007 6.39334C15.2074 6.74001 15.2741 7.44667 14.4541 8.27334L12.8007 9.93334C12.6407 10.0933 12.5407 10.4533 12.5874 10.6733L13.0607 12.72C13.3674 14.0533 12.8941 14.6333 12.5874 14.86C12.4207 14.98 12.1541 15.1133 11.7741 15.1133ZM8.00073 12.3933C8.00073 12.3933 8.65406 12.4733 8.91406 12.6267L10.9074 13.8067C11.4874 14.1533 11.8541 14.1533 11.9941 14.0533C12.1341 13.9533 12.2341 13.6 12.0874 12.9467L11.6141 10.9C11.4874 10.3467 11.6941 9.63334 12.0941 9.22667L13.7474 7.57334C14.0741 7.24667 14.2207 6.92667 14.1541 6.70667C14.0807 6.48667 13.7741 6.30667 13.3207 6.23334L11.1941 5.88C10.6807 5.79334 10.1207 5.38 9.8874 4.91334L8.71406 2.56667C8.50073 2.14 8.00073 1.88667 8.00073 1.88667V12.3933Z" fill="#F9BC00"/>
</svg>

